<?xml version="1.0" encoding="utf-8"?>
<!-- Generator: Adobe Illustrator 18.0.0, SVG Export Plug-In . SVG Version: 6.00 Build 0)  -->
<!DOCTYPE svg PUBLIC "-//W3C//DTD SVG 1.1//EN" "http://www.w3.org/Graphics/SVG/1.1/DTD/svg11.dtd">
<svg version="1.1" id="ecommerce_1_" xmlns="http://www.w3.org/2000/svg" xmlns:xlink="http://www.w3.org/1999/xlink" x="0px"
	 y="0px" viewBox="0 0 115 115" style="enable-background:new 0 0 115 115;" xml:space="preserve">
<style type="text/css">
	.st0{fill:#FFEEAD;}
	.st1{fill:#C9B77D;}
	.st2{fill:#99734A;}
	.st3{fill:#FF6F69;}
	.st4{fill:#96CEB4;}
	.st5{fill:none;}
	.st6{fill:#AA9865;}
	.st7{fill:#71A58A;}
	.st8{fill:#FFCC5C;}
	.st9{fill:#825E3B;}
	.st10{fill:#639376;}
	.st11{fill:#E05858;}
	.st12{fill:#C1821E;}
	.st13{fill:#D6A041;}
	.st14{fill:#B28559;}
	.st15{fill:#BF4343;}
	.st16{fill:#D3C089;}
	.st17{fill:#7C5C3C;}
	.st18{fill:#FDCC5C;}
	.st19{fill:#FFFFFF;}
</style>
<g id="basket_1_">
	<g>
		<g>
			<path class="st4" d="M98.519,42.94H14.957c-5.793,0-9.593,5.046-8.528,11.037l7.184,40.426c0.753,4.236,5.098,7.563,9.729,7.563
				h66.793c4.631,0,8.976-3.327,9.729-7.563l7.184-40.426C108.112,47.987,104.312,42.94,98.519,42.94z"/>
		</g>
	</g>
	<g>
		<g>
			<g>
				<path class="st3" d="M104.055,70.815l1.509-8.491h-8.85V46.09h-8.491v16.234h-15.33V46.09h-8.491v16.234h-15.33V46.09h-8.491
					v16.234h-15.33V46.09h-8.491v16.234h-8.85l1.509,8.491h7.341v15.33h-4.617l1.468,8.26c0.014,0.078,0.038,0.154,0.054,0.231
					h3.095v4.92c1.796,1.487,4.145,2.412,6.579,2.412h1.911v-7.332h15.33v7.332h8.491v-7.332h15.33v7.332h8.491v-7.332h15.33v7.332
					h1.911c2.434,0,4.783-0.925,6.579-2.412v-4.92h3.095c0.016-0.077,0.04-0.153,0.054-0.231l1.468-8.26h-4.617v-15.33H104.055z
					 M40.582,86.145h-15.33v-15.33h15.33V86.145z M64.403,86.145h-15.33v-15.33h15.33V86.145z M88.223,86.145h-15.33v-15.33h15.33
					V86.145z"/>
			</g>
		</g>
	</g>
	<g>
		<g>
			<circle class="st3" cx="62.043" cy="15.359" r="4.863"/>
		</g>
	</g>
	<g>
		<g>
			<path class="st7" d="M102.103,43.679h-90.73c-3.672,1.604-5.768,5.663-4.945,10.299l0.618,3.48h14.528
				c0.364,4,3.688,7.145,7.782,7.145c4.095,0,7.419-3.145,7.783-7.145h40.72c0.364,4,3.688,7.145,7.783,7.145
				c4.095,0,7.419-3.145,7.783-7.145h13.004l0.618-3.48C107.871,49.341,105.775,45.282,102.103,43.679z"/>
		</g>
	</g>
	<g>
		<g>
			<g>
				<path class="st11" d="M88.223,46.09v16.234h-8.057c1.408,1.4,3.329,2.279,5.476,2.279c4.095,0,7.419-3.145,7.783-7.145h3.289
					V46.09H88.223z"/>
			</g>
		</g>
		<g>
			<g>
				<path class="st11" d="M25.253,62.324V46.09h-8.491v11.368h4.813c0.364,4,3.688,7.145,7.782,7.145
					c2.147,0,4.068-0.879,5.476-2.279H25.253z"/>
			</g>
		</g>
		<g>
			<g>
				<rect x="64.403" y="46.09" class="st11" width="8.491" height="11.368"/>
			</g>
		</g>
		<g>
			<g>
				<rect x="40.582" y="46.09" class="st11" width="8.491" height="11.368"/>
			</g>
		</g>
	</g>
	<g>
		<g>
			<path class="st3" d="M111.348,39.758H3.652C1.635,39.758,0,41.393,0,43.41v6.476c0,2.017,1.635,3.652,3.652,3.652h17.923
				c0.364,4,3.688,7.145,7.782,7.145c4.095,0,7.419-3.145,7.783-7.145h40.72c0.364,4,3.688,7.145,7.783,7.145
				c4.095,0,7.419-3.145,7.783-7.145h17.923c2.017,0,3.652-1.635,3.652-3.652V43.41C115,41.393,113.365,39.758,111.348,39.758z"/>
		</g>
	</g>
	<g>
		<g>
			<circle class="st4" cx="29.056" cy="52.527" r="3.424"/>
		</g>
	</g>
	<g>
		<g>
			<circle class="st4" cx="85.341" cy="52.527" r="3.424"/>
		</g>
	</g>
	<g>
		<g>
			<path class="st0" d="M87.417,50.779l-23.27-36.657c-0.762-1.206-2.358-1.564-3.565-0.801c-1.205,0.764-1.564,2.36-0.8,3.566
				l23.27,36.657c0.468,0.741,1.251,1.161,2.065,1.199c0.512,0.024,1.034-0.104,1.5-0.398
				C87.822,53.582,88.181,51.985,87.417,50.779z"/>
		</g>
	</g>
	<g>
		<g>
			<circle class="st3" cx="52.316" cy="15.359" r="4.863"/>
		</g>
	</g>
	<g>
		<g>
			<path class="st0" d="M53.771,13.321c-1.208-0.764-2.803-0.406-3.566,0.801l-23.27,36.657c-0.764,1.206-0.405,2.802,0.8,3.566
				c0.466,0.295,0.988,0.422,1.5,0.398c0.814-0.038,1.597-0.458,2.065-1.199l23.27-36.657
				C55.335,15.682,54.976,14.085,53.771,13.321z"/>
		</g>
	</g>
	<g>
		<g>
			<path class="st4" d="M13.64,94.637v5.403c0,2.466,1.999,4.464,4.464,4.464h77.223c2.466,0,4.465-1.999,4.465-4.464v-5.403H13.64z
				"/>
		</g>
	</g>
</g>
</svg>
